<svg width="58" height="15" viewBox="0 0 58 15" fill="none" xmlns="http://www.w3.org/2000/svg">
<path d="M6.86426 1.20312V14H4.23633V1.20312H6.86426ZM10.8018 1.20312V3.26855H0.360352V1.20312H10.8018Z" fill="#FFDDA0"/>
<path d="M14.8184 4.49023V14H12.2783V4.49023H14.8184ZM12.1201 2.01172C12.1201 1.64258 12.249 1.33789 12.5068 1.09766C12.7646 0.857422 13.1104 0.737305 13.5439 0.737305C13.9717 0.737305 14.3145 0.857422 14.5723 1.09766C14.8359 1.33789 14.9678 1.64258 14.9678 2.01172C14.9678 2.38086 14.8359 2.68555 14.5723 2.92578C14.3145 3.16602 13.9717 3.28613 13.5439 3.28613C13.1104 3.28613 12.7646 3.16602 12.5068 2.92578C12.249 2.68555 12.1201 2.38086 12.1201 2.01172Z" fill="#FFDDA0"/>
<path d="M21.5684 4.49023V6.2832H16.0312V4.49023H21.5684ZM17.4023 2.14355H19.9336V11.1348C19.9336 11.4102 19.9688 11.6211 20.0391 11.7676C20.1152 11.9141 20.2266 12.0166 20.373 12.0752C20.5195 12.1279 20.7041 12.1543 20.9268 12.1543C21.085 12.1543 21.2256 12.1484 21.3486 12.1367C21.4775 12.1191 21.5859 12.1016 21.6738 12.084L21.6826 13.9473C21.4658 14.0176 21.2314 14.0732 20.9795 14.1143C20.7275 14.1553 20.4492 14.1758 20.1445 14.1758C19.5879 14.1758 19.1016 14.085 18.6855 13.9033C18.2754 13.7158 17.959 13.417 17.7363 13.0068C17.5137 12.5967 17.4023 12.0576 17.4023 11.3896V2.14355Z" fill="#FFDDA0"/>
<path d="M28.1426 11.8555V7.61914C28.1426 7.31445 28.0928 7.05371 27.9932 6.83691C27.8936 6.61426 27.7383 6.44141 27.5273 6.31836C27.3223 6.19531 27.0557 6.13379 26.7275 6.13379C26.4463 6.13379 26.2031 6.18359 25.998 6.2832C25.793 6.37695 25.6348 6.51465 25.5234 6.69629C25.4121 6.87207 25.3564 7.08008 25.3564 7.32031H22.8252C22.8252 6.91602 22.9189 6.53223 23.1064 6.16895C23.2939 5.80566 23.5664 5.48633 23.9238 5.21094C24.2812 4.92969 24.7061 4.70996 25.1982 4.55176C25.6963 4.39355 26.2529 4.31445 26.8682 4.31445C27.6064 4.31445 28.2627 4.4375 28.8369 4.68359C29.4111 4.92969 29.8623 5.29883 30.1904 5.79102C30.5244 6.2832 30.6914 6.89844 30.6914 7.63672V11.7061C30.6914 12.2275 30.7236 12.6553 30.7881 12.9893C30.8525 13.3174 30.9463 13.6045 31.0693 13.8506V14H28.5117C28.3887 13.7422 28.2949 13.4199 28.2305 13.0332C28.1719 12.6406 28.1426 12.248 28.1426 11.8555ZM28.4766 8.20801L28.4941 9.64062H27.0791C26.7451 9.64062 26.4551 9.67871 26.209 9.75488C25.9629 9.83105 25.7607 9.93945 25.6025 10.0801C25.4443 10.2148 25.3271 10.373 25.251 10.5547C25.1807 10.7363 25.1455 10.9355 25.1455 11.1523C25.1455 11.3691 25.1953 11.5654 25.2949 11.7412C25.3945 11.9111 25.5381 12.0459 25.7256 12.1455C25.9131 12.2393 26.1328 12.2861 26.3848 12.2861C26.7656 12.2861 27.0967 12.21 27.3779 12.0576C27.6592 11.9053 27.876 11.7178 28.0283 11.4951C28.1865 11.2725 28.2686 11.0615 28.2744 10.8623L28.9424 11.9346C28.8486 12.1748 28.7197 12.4238 28.5557 12.6816C28.3975 12.9395 28.1953 13.1826 27.9492 13.4111C27.7031 13.6338 27.4072 13.8184 27.0615 13.9648C26.7158 14.1055 26.3057 14.1758 25.8311 14.1758C25.2275 14.1758 24.6797 14.0557 24.1875 13.8154C23.7012 13.5693 23.3145 13.2324 23.0273 12.8047C22.7461 12.3711 22.6055 11.8789 22.6055 11.3281C22.6055 10.8301 22.6992 10.3877 22.8867 10.001C23.0742 9.61426 23.3496 9.28906 23.7129 9.02539C24.082 8.75586 24.542 8.55371 25.0928 8.41895C25.6436 8.27832 26.2822 8.20801 27.0088 8.20801H28.4766Z" fill="#FFDDA0"/>
<path d="M35.1211 6.52051V14H32.5898V4.49023H34.9629L35.1211 6.52051ZM34.752 8.91113H34.0664C34.0664 8.20801 34.1572 7.5752 34.3389 7.0127C34.5205 6.44434 34.7754 5.96094 35.1035 5.5625C35.4316 5.1582 35.8213 4.85059 36.2725 4.63965C36.7295 4.42285 37.2393 4.31445 37.8018 4.31445C38.2471 4.31445 38.6543 4.37891 39.0234 4.50781C39.3926 4.63672 39.709 4.8418 39.9727 5.12305C40.2422 5.4043 40.4473 5.77637 40.5879 6.23926C40.7344 6.70215 40.8076 7.26758 40.8076 7.93555V14H38.2588V7.92676C38.2588 7.50488 38.2002 7.17676 38.083 6.94238C37.9658 6.70801 37.793 6.54395 37.5645 6.4502C37.3418 6.35059 37.0664 6.30078 36.7383 6.30078C36.3984 6.30078 36.1025 6.36816 35.8506 6.50293C35.6045 6.6377 35.3994 6.8252 35.2354 7.06543C35.0771 7.2998 34.957 7.5752 34.875 7.8916C34.793 8.20801 34.752 8.54785 34.752 8.91113Z" fill="#FFDDA0"/>
<path d="M51.9873 11.3281L55.002 1.20312H57.9375L53.4814 14H51.5479L51.9873 11.3281ZM49.21 1.20312L52.2158 11.3281L52.6729 14H50.7217L46.292 1.20312H49.21Z" fill="#FFDDA0"/>
</svg>
